<svg xmlns="http://www.w3.org/2000/svg" viewBox="0 0 128 128" role="img" aria-label="linh-moc"><defs><radialGradient id="bg" cx="50%" cy="35%" r="70%"><stop offset="0" stop-color="#84cc16" stop-opacity=".22"/><stop offset="1" stop-color="#050807"/></radialGradient><filter id="glow"><feGaussianBlur stdDeviation="2.4" result="b"/><feMerge><feMergeNode in="b"/><feMergeNode in="SourceGraphic"/></feMerge></filter></defs><rect width="128" height="128" rx="18" fill="url(#bg)"/><path d="M14 22 L22 14 H106 L114 22 V106 L106 114 H22 L14 106Z" fill="none" stroke="#bef264" stroke-opacity=".46" stroke-width="2"/><g filter="url(#glow)"><circle cx="64" cy="64" r="48" stroke="#bef264" stroke-width="1.5" fill="none" opacity=".6"/><path d="M37 98 C43 69 41 39 59 19 C77 43 78 73 90 99 C72 91 55 92 37 98Z" fill="#365314"/><path d="M58 23 C57 52 61 76 51 97" stroke="#84cc16" stroke-width="9" stroke-linecap="round"/><path d="M66 47 C78 38 85 34 96 33 M54 58 C43 49 35 45 25 44" stroke="#bef264" stroke-width="5" stroke-linecap="round"/></g></svg>
