<svg xmlns="http://www.w3.org/2000/svg" viewBox="0 0 128 128" role="img" aria-label="tu-diep-linh-thao"><defs><filter id="s" x="-30%" y="-30%" width="160%" height="160%"><feDropShadow dx="0" dy="4" stdDeviation="4" flood-color="#000" flood-opacity=".55"/><feDropShadow dx="0" dy="0" stdDeviation="2" flood-color="#f0abfc" flood-opacity=".35"/></filter></defs><rect width="128" height="128" rx="16" fill="#070b09"/><path d="M17 24 L24 17 H104 L111 24 V104 L104 111 H24 L17 104Z" fill="none" stroke="#5cc6ff" stroke-opacity=".46" stroke-width="2"/><ellipse cx="64" cy="105" rx="36" ry="8" fill="#000" opacity=".42"/><g filter="url(#s)"><path d="M64 101 C66 75 63 49 69 25" stroke="#d8b4fe" stroke-width="5"/><path d="M64 57 C45 47 41 31 47 20 C62 29 69 42 64 57Z" fill="#c084fc"/><path d="M68 71 C91 67 101 52 100 35 C81 39 70 51 68 71Z" fill="#7e22ce"/><path d="M60 83 C43 80 33 68 32 54 C48 56 59 66 60 83Z" fill="#f0abfc" opacity=".75"/><circle cx="69" cy="25" r="5" fill="#f5d0fe"/><path d="M31 98 C48 88 79 88 96 98" stroke="#f0abfc" stroke-width="2" fill="none" opacity=".22"/></g></svg>
