<svg xmlns="http://www.w3.org/2000/svg" viewBox="0 0 128 128" role="img" aria-label="xich-dong-quang"><defs><radialGradient id="bg" cx="50%" cy="35%" r="70%"><stop offset="0" stop-color="#f97316" stop-opacity=".22"/><stop offset="1" stop-color="#050807"/></radialGradient><filter id="glow"><feGaussianBlur stdDeviation="2.4" result="b"/><feMerge><feMergeNode in="b"/><feMergeNode in="SourceGraphic"/></feMerge></filter></defs><rect width="128" height="128" rx="18" fill="url(#bg)"/><path d="M14 22 L22 14 H106 L114 22 V106 L106 114 H22 L14 106Z" fill="none" stroke="#fdba74" stroke-opacity=".46" stroke-width="2"/><g filter="url(#glow)"><circle cx="64" cy="64" r="48" stroke="#fdba74" stroke-width="1.5" fill="none" opacity=".6"/><circle cx="64" cy="64" r="53" stroke="#fdba74" stroke-width="1.5" fill="none" opacity=".5"/><circle cx="64" cy="64" r="58" stroke="#fdba74" stroke-width="1.5" fill="none" opacity=".4"/><circle cx="64" cy="64" r="63" stroke="#fdba74" stroke-width="1.5" fill="none" opacity=".3"/><path d="M33 86 L45 37 L72 22 L97 47 L88 91 L55 106 Z" fill="#7c2d12"/><path d="M45 37 L72 22 L65 70 L33 86 Z" fill="#f97316"/><path d="M72 22 L97 47 L65 70 Z" fill="#fdba74" opacity=".75"/><path d="M55 106 L65 70 L88 91 Z" fill="#f97316" opacity=".55"/><path d="M48 50 L82 42" stroke="#fff7ed" stroke-width="3" opacity=".55"/></g></svg>
