<svg xmlns="http://www.w3.org/2000/svg" viewBox="0 0 128 128" role="img" aria-label="xich-viem-tinh-kim"><defs><filter id="s" x="-30%" y="-30%" width="160%" height="160%"><feDropShadow dx="0" dy="4" stdDeviation="4" flood-color="#000" flood-opacity=".55"/><feDropShadow dx="0" dy="0" stdDeviation="2" flood-color="#fed7aa" flood-opacity=".35"/></filter></defs><rect width="128" height="128" rx="16" fill="#070b09"/><path d="M17 24 L24 17 H104 L111 24 V104 L104 111 H24 L17 104Z" fill="none" stroke="#d8b4fe" stroke-opacity=".46" stroke-width="2"/><ellipse cx="64" cy="105" rx="36" ry="8" fill="#000" opacity=".42"/><g filter="url(#s)"><path d="M30 94 L40 42 L69 14 L99 37 L105 84 L75 110Z" fill="#450a0a"/><path d="M40 42 L69 14 L65 73 L30 94Z" fill="#ef4444"/><path d="M69 14 L99 37 L65 73Z" fill="#fb923c"/><path d="M65 73 L105 84 L75 110Z" fill="#7f1d1d"/><path d="M51 43 L86 35 M45 72 L92 83" stroke="#fed7aa" stroke-width="4" opacity=".75"/><path d="M24 100 C43 85 86 85 105 100" stroke="#fed7aa" stroke-width="3" fill="none" opacity=".28"/></g></svg>
